<?xml version="1.0" encoding="UTF-8"?>
<!-- Generator: Adobe Illustrator 25.0.0, SVG Export Plug-In . SVG Version: 6.00 Build 0)  -->
<svg xmlns="http://www.w3.org/2000/svg" xmlns:xlink="http://www.w3.org/1999/xlink" version="1.1" id="Capa_1" x="0px" y="0px" viewBox="0 0 512 512" style="enable-background:new 0 0 512 512;" xml:space="preserve" width="512" height="512">
<g>
	<path d="M394.667,512H117.333C52.561,511.929,0.071,459.439,0,394.667V117.333C0.071,52.561,52.561,0.071,117.333,0h277.333   C459.439,0.071,511.929,52.561,512,117.333v277.333C511.929,459.439,459.439,511.929,394.667,512z M117.333,64   C87.878,64,64,87.878,64,117.333v277.333C64,424.122,87.878,448,117.333,448h277.333C424.122,448,448,424.122,448,394.667V117.333   C448,87.878,424.122,64,394.667,64H117.333z"/>
</g>















</svg>
